<?xml version="1.0" encoding="UTF-8" standalone="no"?>
<!DOCTYPE svg PUBLIC "-//W3C//DTD SVG 1.1//EN"
 "http://www.w3.org/Graphics/SVG/1.1/DTD/svg11.dtd">
<!-- Generated by graphviz version 6.0.1 (20220911.1526)
 -->
<!-- Title: classes Pages: 1 -->
<svg width="2421pt" height="635pt"
 viewBox="0.00 0.00 2421.00 635.00" xmlns="http://www.w3.org/2000/svg" xmlns:xlink="http://www.w3.org/1999/xlink">
<g id="graph0" class="graph" transform="scale(1 1) rotate(0) translate(4 631)">
<title>classes</title>
<polygon fill="white" stroke="none" points="-4,4 -4,-631 2417,-631 2417,4 -4,4"/>
<!-- src.crawling.methods.breadth_first_search.BreadthFirstSearch -->
<g id="node1" class="node">
<title>src.crawling.methods.breadth_first_search.BreadthFirstSearch</title>
<polygon fill="none" stroke="black" points="866,-355 866,-604 1055,-604 1055,-355 866,-355"/>
<text text-anchor="middle" x="960.5" y="-588.8" font-family="Times New Roman,serif" font-size="14.00">BreadthFirstSearch</text>
<polyline fill="none" stroke="black" points="866,-581 1055,-581"/>
<text text-anchor="start" x="874" y="-565.8" font-family="Times New Roman,serif" font-size="14.00">crawl_id : int</text>
<text text-anchor="start" x="874" y="-550.8" font-family="Times New Roman,serif" font-size="14.00">db</text>
<text text-anchor="start" x="874" y="-535.8" font-family="Times New Roman,serif" font-size="14.00">duration_sec : int</text>
<text text-anchor="start" x="874" y="-520.8" font-family="Times New Roman,serif" font-size="14.00">list_urls : list</text>
<text text-anchor="start" x="874" y="-505.8" font-family="Times New Roman,serif" font-size="14.00">lock : lock</text>
<text text-anchor="start" x="874" y="-490.8" font-family="Times New Roman,serif" font-size="14.00">max_threads : int</text>
<text text-anchor="start" x="874" y="-475.8" font-family="Times New Roman,serif" font-size="14.00">page_content</text>
<text text-anchor="start" x="874" y="-460.8" font-family="Times New Roman,serif" font-size="14.00">start_time</text>
<text text-anchor="start" x="874" y="-445.8" font-family="Times New Roman,serif" font-size="14.00">url_queue : Queue</text>
<text text-anchor="start" x="874" y="-430.8" font-family="Times New Roman,serif" font-size="14.00">util</text>
<text text-anchor="start" x="874" y="-415.8" font-family="Times New Roman,serif" font-size="14.00">visited_urls : list</text>
<polyline fill="none" stroke="black" points="866,-408 1055,-408"/>
<text text-anchor="start" x="874" y="-392.8" font-family="Times New Roman,serif" font-size="14.00">run(): None</text>
<text text-anchor="start" x="874" y="-377.8" font-family="Times New Roman,serif" font-size="14.00">scrape_page(url: str): None</text>
<text text-anchor="start" x="874" y="-362.8" font-family="Times New Roman,serif" font-size="14.00">tag_visible(element: Any): bool</text>
</g>
<!-- src.crawling.crawl.Crawl -->
<g id="node2" class="node">
<title>src.crawling.crawl.Crawl</title>
<polygon fill="none" stroke="black" points="601.5,-340 601.5,-619 847.5,-619 847.5,-340 601.5,-340"/>
<text text-anchor="middle" x="724.5" y="-603.8" font-family="Times New Roman,serif" font-size="14.00">Crawl</text>
<polyline fill="none" stroke="black" points="601.5,-596 847.5,-596"/>
<text text-anchor="start" x="609.5" y="-580.8" font-family="Times New Roman,serif" font-size="14.00">bfs_duration_sec : int</text>
<text text-anchor="start" x="609.5" y="-565.8" font-family="Times New Roman,serif" font-size="14.00">db</text>
<text text-anchor="start" x="609.5" y="-550.8" font-family="Times New Roman,serif" font-size="14.00">max_threads : int</text>
<text text-anchor="start" x="609.5" y="-535.8" font-family="Times New Roman,serif" font-size="14.00">msb_duration_sec : int</text>
<text text-anchor="start" x="609.5" y="-520.8" font-family="Times New Roman,serif" font-size="14.00">msb_keyword : str</text>
<text text-anchor="start" x="609.5" y="-505.8" font-family="Times New Roman,serif" font-size="14.00">page_content</text>
<text text-anchor="start" x="609.5" y="-490.8" font-family="Times New Roman,serif" font-size="14.00">page_count_end</text>
<text text-anchor="start" x="609.5" y="-475.8" font-family="Times New Roman,serif" font-size="14.00">page_count_start</text>
<text text-anchor="start" x="609.5" y="-460.8" font-family="Times New Roman,serif" font-size="14.00">process : Process</text>
<text text-anchor="start" x="609.5" y="-445.8" font-family="Times New Roman,serif" font-size="14.00">start_time</text>
<text text-anchor="start" x="609.5" y="-430.8" font-family="Times New Roman,serif" font-size="14.00">start_urls : list</text>
<text text-anchor="start" x="609.5" y="-415.8" font-family="Times New Roman,serif" font-size="14.00">url_queue : Queue</text>
<text text-anchor="start" x="609.5" y="-400.8" font-family="Times New Roman,serif" font-size="14.00">util</text>
<text text-anchor="start" x="609.5" y="-385.8" font-family="Times New Roman,serif" font-size="14.00">visited_urls : list</text>
<polyline fill="none" stroke="black" points="601.5,-378 847.5,-378"/>
<text text-anchor="start" x="609.5" y="-362.8" font-family="Times New Roman,serif" font-size="14.00">run(): int</text>
<text text-anchor="start" x="609.5" y="-347.8" font-family="Times New Roman,serif" font-size="14.00">scrape_links_for_resume(urls: list): None</text>
</g>
<!-- src.crawling.util.CustomThreadPoolExecutor -->
<g id="node3" class="node">
<title>src.crawling.util.CustomThreadPoolExecutor</title>
<polygon fill="none" stroke="black" points="2236,-105.5 2236,-175.5 2413,-175.5 2413,-105.5 2236,-105.5"/>
<text text-anchor="middle" x="2324.5" y="-160.3" font-family="Times New Roman,serif" font-size="14.00">CustomThreadPoolExecutor</text>
<polyline fill="none" stroke="black" points="2236,-152.5 2413,-152.5"/>
<polyline fill="none" stroke="black" points="2236,-128.5 2413,-128.5"/>
<text text-anchor="start" x="2244" y="-113.3" font-family="Times New Roman,serif" font-size="14.00">shutdown39(wait)</text>
</g>
<!-- src.database.database.Database -->
<g id="node4" class="node">
<title>src.database.database.Database</title>
<polygon fill="none" stroke="black" points="1623.5,-38.5 1623.5,-242.5 2217.5,-242.5 2217.5,-38.5 1623.5,-38.5"/>
<text text-anchor="middle" x="1920.5" y="-227.3" font-family="Times New Roman,serif" font-size="14.00">Database</text>
<polyline fill="none" stroke="black" points="1623.5,-219.5 2217.5,-219.5"/>
<text text-anchor="start" x="1631.5" y="-204.3" font-family="Times New Roman,serif" font-size="14.00">db_name : NoneType</text>
<text text-anchor="start" x="1631.5" y="-189.3" font-family="Times New Roman,serif" font-size="14.00">db_port : int</text>
<text text-anchor="start" x="1631.5" y="-174.3" font-family="Times New Roman,serif" font-size="14.00">host : NoneType</text>
<text text-anchor="start" x="1631.5" y="-159.3" font-family="Times New Roman,serif" font-size="14.00">password : NoneType</text>
<text text-anchor="start" x="1631.5" y="-144.3" font-family="Times New Roman,serif" font-size="14.00">username : NoneType</text>
<polyline fill="none" stroke="black" points="1623.5,-136.5 2217.5,-136.5"/>
<text text-anchor="start" x="1631.5" y="-121.3" font-family="Times New Roman,serif" font-size="14.00">check_value_in_table(connection: pymysql.Connection, table_name: str, column_name: str, value: Any)</text>
<text text-anchor="start" x="1631.5" y="-106.3" font-family="Times New Roman,serif" font-size="14.00">close_connection(connection: pymysql.Connection): None</text>
<text text-anchor="start" x="1631.5" y="-91.3" font-family="Times New Roman,serif" font-size="14.00">connect(): pymysql.Connection</text>
<text text-anchor="start" x="1631.5" y="-76.3" font-family="Times New Roman,serif" font-size="14.00">count_rows(connection: pymysql.Connection, table_name: str)</text>
<text text-anchor="start" x="1631.5" y="-61.3" font-family="Times New Roman,serif" font-size="14.00">create_tables(connection: pymysql.Connection)</text>
<text text-anchor="start" x="1631.5" y="-46.3" font-family="Times New Roman,serif" font-size="14.00">exec_query(connection: pymysql.Connection, query: str)</text>
</g>
<!-- src.database.database.Database&#45;&gt;src.crawling.methods.breadth_first_search.BreadthFirstSearch -->
<g id="edge8" class="edge">
<title>src.database.database.Database&#45;&gt;src.crawling.methods.breadth_first_search.BreadthFirstSearch</title>
<path fill="none" stroke="black" d="M1724.07,-242.62C1688.37,-257.64 1650.89,-271.31 1614.5,-281 1461.81,-321.68 1417.85,-299.48 1260.5,-314 1216.73,-318.04 1101.55,-309.98 1063.5,-332 1056.27,-336.18 1049.42,-341.11 1042.95,-346.56"/>
<polygon fill="black" stroke="black" points="1042.64,-346.85 1040.88,-353.84 1033.75,-354.91 1035.51,-347.92 1042.64,-346.85"/>
<text text-anchor="middle" x="1535.5" y="-302.8" font-family="Times New Roman,serif" font-size="14.00" fill="green">db</text>
</g>
<!-- src.database.database.Database&#45;&gt;src.crawling.crawl.Crawl -->
<g id="edge7" class="edge">
<title>src.database.database.Database&#45;&gt;src.crawling.crawl.Crawl</title>
<path fill="none" stroke="black" d="M1729.09,-242.51C1691.98,-258.11 1652.72,-272 1614.5,-281 1501.95,-307.49 1208.78,-281.4 1094.5,-299 1069.88,-302.79 1064.99,-309.44 1040.5,-314 1000.11,-321.53 893.18,-313.49 856.5,-332 855.32,-332.6 854.14,-333.21 852.96,-333.84"/>
<polygon fill="black" stroke="black" points="852.94,-333.85 849.76,-340.32 842.56,-339.88 845.74,-333.41 852.94,-333.85"/>
<text text-anchor="middle" x="1102.5" y="-302.8" font-family="Times New Roman,serif" font-size="14.00" fill="green">db</text>
</g>
<!-- src.crawling.methods.modified_similarity_based.ModifiedSimilarityBased -->
<g id="node5" class="node">
<title>src.crawling.methods.modified_similarity_based.ModifiedSimilarityBased</title>
<polygon fill="none" stroke="black" points="1073,-332.5 1073,-626.5 1346,-626.5 1346,-332.5 1073,-332.5"/>
<text text-anchor="middle" x="1209.5" y="-611.3" font-family="Times New Roman,serif" font-size="14.00">ModifiedSimilarityBased</text>
<polyline fill="none" stroke="black" points="1073,-603.5 1346,-603.5"/>
<text text-anchor="start" x="1081" y="-588.3" font-family="Times New Roman,serif" font-size="14.00">crawl_id : int</text>
<text text-anchor="start" x="1081" y="-573.3" font-family="Times New Roman,serif" font-size="14.00">db</text>
<text text-anchor="start" x="1081" y="-558.3" font-family="Times New Roman,serif" font-size="14.00">duration_sec : int</text>
<text text-anchor="start" x="1081" y="-543.3" font-family="Times New Roman,serif" font-size="14.00">hot_queue : Queue</text>
<text text-anchor="start" x="1081" y="-528.3" font-family="Times New Roman,serif" font-size="14.00">keyword : str</text>
<text text-anchor="start" x="1081" y="-513.3" font-family="Times New Roman,serif" font-size="14.00">list_urls : list</text>
<text text-anchor="start" x="1081" y="-498.3" font-family="Times New Roman,serif" font-size="14.00">lock : lock</text>
<text text-anchor="start" x="1081" y="-483.3" font-family="Times New Roman,serif" font-size="14.00">max_threads : int</text>
<text text-anchor="start" x="1081" y="-468.3" font-family="Times New Roman,serif" font-size="14.00">page_content</text>
<text text-anchor="start" x="1081" y="-453.3" font-family="Times New Roman,serif" font-size="14.00">start_time</text>
<text text-anchor="start" x="1081" y="-438.3" font-family="Times New Roman,serif" font-size="14.00">url_queue</text>
<text text-anchor="start" x="1081" y="-423.3" font-family="Times New Roman,serif" font-size="14.00">util</text>
<text text-anchor="start" x="1081" y="-408.3" font-family="Times New Roman,serif" font-size="14.00">visited_urls : list</text>
<polyline fill="none" stroke="black" points="1073,-400.5 1346,-400.5"/>
<text text-anchor="start" x="1081" y="-385.3" font-family="Times New Roman,serif" font-size="14.00">reorder_queue(q: queue.Queue): queue.Queue</text>
<text text-anchor="start" x="1081" y="-370.3" font-family="Times New Roman,serif" font-size="14.00">run(): None</text>
<text text-anchor="start" x="1081" y="-355.3" font-family="Times New Roman,serif" font-size="14.00">scrape_page(url: str): None</text>
<text text-anchor="start" x="1081" y="-340.3" font-family="Times New Roman,serif" font-size="14.00">tag_visible(element: Any): bool</text>
</g>
<!-- src.database.database.Database&#45;&gt;src.crawling.methods.modified_similarity_based.ModifiedSimilarityBased -->
<g id="edge9" class="edge">
<title>src.database.database.Database&#45;&gt;src.crawling.methods.modified_similarity_based.ModifiedSimilarityBased</title>
<path fill="none" stroke="black" d="M1707.18,-242.61C1594.2,-296.16 1458.3,-360.57 1357.07,-408.55"/>
<polygon fill="black" stroke="black" points="1356.99,-408.59 1353.28,-414.78 1346.15,-413.73 1349.86,-407.55 1356.99,-408.59"/>
<text text-anchor="middle" x="1594.5" y="-302.8" font-family="Times New Roman,serif" font-size="14.00" fill="green">db</text>
</g>
<!-- src.page_ranking.page_rank.PageRank -->
<g id="node7" class="node">
<title>src.page_ranking.page_rank.PageRank</title>
<polygon fill="none" stroke="black" points="1590,-392.5 1590,-566.5 1889,-566.5 1889,-392.5 1590,-392.5"/>
<text text-anchor="middle" x="1739.5" y="-551.3" font-family="Times New Roman,serif" font-size="14.00">PageRank</text>
<polyline fill="none" stroke="black" points="1590,-543.5 1889,-543.5"/>
<text text-anchor="start" x="1598" y="-528.3" font-family="Times New Roman,serif" font-size="14.00">damping_factor : float</text>
<text text-anchor="start" x="1598" y="-513.3" font-family="Times New Roman,serif" font-size="14.00">db</text>
<text text-anchor="start" x="1598" y="-498.3" font-family="Times New Roman,serif" font-size="14.00">max_iterations : int</text>
<polyline fill="none" stroke="black" points="1590,-490.5 1889,-490.5"/>
<text text-anchor="start" x="1598" y="-475.3" font-family="Times New Roman,serif" font-size="14.00">get_all_crawled_pages(db_connection)</text>
<text text-anchor="start" x="1598" y="-460.3" font-family="Times New Roman,serif" font-size="14.00">get_all_pagerank_for_api()</text>
<text text-anchor="start" x="1598" y="-445.3" font-family="Times New Roman,serif" font-size="14.00">get_one_pagerank(db_connection, url)</text>
<text text-anchor="start" x="1598" y="-430.3" font-family="Times New Roman,serif" font-size="14.00">run_background_service()</text>
<text text-anchor="start" x="1598" y="-415.3" font-family="Times New Roman,serif" font-size="14.00">save_initial_pagerank(db_connection, initial_pr)</text>
<text text-anchor="start" x="1598" y="-400.3" font-family="Times New Roman,serif" font-size="14.00">save_one_pagerank(db_connection, url, pagerank)</text>
</g>
<!-- src.database.database.Database&#45;&gt;src.page_ranking.page_rank.PageRank -->
<g id="edge11" class="edge">
<title>src.database.database.Database&#45;&gt;src.page_ranking.page_rank.PageRank</title>
<path fill="none" stroke="black" d="M1866.19,-242.61C1842.53,-286.67 1814.91,-338.09 1791.51,-381.66"/>
<polygon fill="black" stroke="black" points="1791.49,-381.7 1792.18,-388.87 1785.81,-392.27 1785.13,-385.09 1791.49,-381.7"/>
<text text-anchor="middle" x="1843.5" y="-302.8" font-family="Times New Roman,serif" font-size="14.00" fill="green">db</text>
</g>
<!-- src.document_ranking.tf_idf.TfIdf -->
<g id="node8" class="node">
<title>src.document_ranking.tf_idf.TfIdf</title>
<polygon fill="none" stroke="black" points="1907,-392.5 1907,-566.5 2294,-566.5 2294,-392.5 1907,-392.5"/>
<text text-anchor="middle" x="2100.5" y="-551.3" font-family="Times New Roman,serif" font-size="14.00">TfIdf</text>
<polyline fill="none" stroke="black" points="1907,-543.5 2294,-543.5"/>
<text text-anchor="start" x="1915" y="-528.3" font-family="Times New Roman,serif" font-size="14.00">db</text>
<polyline fill="none" stroke="black" points="1907,-520.5 2294,-520.5"/>
<text text-anchor="start" x="1915" y="-505.3" font-family="Times New Roman,serif" font-size="14.00">get_all_saved_tfidf(db_connection, keyword)</text>
<text text-anchor="start" x="1915" y="-490.3" font-family="Times New Roman,serif" font-size="14.00">get_all_tfidf_for_api(keyword)</text>
<text text-anchor="start" x="1915" y="-475.3" font-family="Times New Roman,serif" font-size="14.00">get_one_url(db_connection, page_id)</text>
<text text-anchor="start" x="1915" y="-460.3" font-family="Times New Roman,serif" font-size="14.00">remove_tfidf_rows(db_connection)</text>
<text text-anchor="start" x="1915" y="-445.3" font-family="Times New Roman,serif" font-size="14.00">run_background_service()</text>
<text text-anchor="start" x="1915" y="-430.3" font-family="Times New Roman,serif" font-size="14.00">save_call_log(db_connection, keyword, duration_call)</text>
<text text-anchor="start" x="1915" y="-415.3" font-family="Times New Roman,serif" font-size="14.00">save_one_tfidf(db_connection, keyword, url, tfidf_total)</text>
<text text-anchor="start" x="1915" y="-400.3" font-family="Times New Roman,serif" font-size="14.00">save_one_tfidf_word(db_connection, word, page_id, tfidf_score)</text>
</g>
<!-- src.database.database.Database&#45;&gt;src.document_ranking.tf_idf.TfIdf -->
<g id="edge10" class="edge">
<title>src.database.database.Database&#45;&gt;src.document_ranking.tf_idf.TfIdf</title>
<path fill="none" stroke="black" d="M1974.51,-242.61C1998.04,-286.67 2025.51,-338.09 2048.78,-381.66"/>
<polygon fill="black" stroke="black" points="2048.79,-381.68 2055.14,-385.09 2054.44,-392.27 2048.09,-388.86 2048.79,-381.68"/>
<text text-anchor="middle" x="2018.5" y="-302.8" font-family="Times New Roman,serif" font-size="14.00" fill="green">db</text>
</g>
<!-- src.crawling.page_content.PageContent -->
<g id="node6" class="node">
<title>src.crawling.page_content.PageContent</title>
<polygon fill="none" stroke="black" points="315.5,-0.5 315.5,-280.5 1605.5,-280.5 1605.5,-0.5 315.5,-0.5"/>
<text text-anchor="middle" x="960.5" y="-265.3" font-family="Times New Roman,serif" font-size="14.00">PageContent</text>
<polyline fill="none" stroke="black" points="315.5,-257.5 1605.5,-257.5"/>
<polyline fill="none" stroke="black" points="315.5,-233.5 1605.5,-233.5"/>
<text text-anchor="start" x="323.5" y="-218.3" font-family="Times New Roman,serif" font-size="14.00">get_crawled_pages_api(start_index, length)</text>
<text text-anchor="start" x="323.5" y="-203.3" font-family="Times New Roman,serif" font-size="14.00">get_visited_urls(db_connection: pymysql.Connection): list</text>
<text text-anchor="start" x="323.5" y="-188.3" font-family="Times New Roman,serif" font-size="14.00">insert_crawling(db_connection: pymysql.Connection, start_urls: str, keyword: str, total_page: int, duration: int): int</text>
<text text-anchor="start" x="323.5" y="-173.3" font-family="Times New Roman,serif" font-size="14.00">insert_page_api(page_information, page_forms, page_images, page_linking, page_list, page_scripts, page_styles, page_tables)</text>
<text text-anchor="start" x="323.5" y="-158.3" font-family="Times New Roman,serif" font-size="14.00">insert_page_form(db_connection: pymysql.Connection, url: str, form: str): None</text>
<text text-anchor="start" x="323.5" y="-143.3" font-family="Times New Roman,serif" font-size="14.00">insert_page_image(db_connection: pymysql.Connection, url: str, image: str): None</text>
<text text-anchor="start" x="323.5" y="-128.3" font-family="Times New Roman,serif" font-size="14.00">insert_page_information(db_connection: pymysql.Connection, url: str, crawl_id: int, html5: bool, title: str, description: str, keywords: str, content_text: str, hot_url: bool, size_bytes: int, model_crawl: str, duration_crawl: int): None</text>
<text text-anchor="start" x="323.5" y="-113.3" font-family="Times New Roman,serif" font-size="14.00">insert_page_linking(db_connection: pymysql.Connection, crawl_id: int, url: str, outgoing_link: str): None</text>
<text text-anchor="start" x="323.5" y="-98.3" font-family="Times New Roman,serif" font-size="14.00">insert_page_list(db_connection: pymysql.Connection, url: str, list: str): None</text>
<text text-anchor="start" x="323.5" y="-83.3" font-family="Times New Roman,serif" font-size="14.00">insert_page_script(db_connection: pymysql.Connection, url: str, script: str): None</text>
<text text-anchor="start" x="323.5" y="-68.3" font-family="Times New Roman,serif" font-size="14.00">insert_page_style(db_connection: pymysql.Connection, url: str, style: str): None</text>
<text text-anchor="start" x="323.5" y="-53.3" font-family="Times New Roman,serif" font-size="14.00">insert_page_table(db_connection: pymysql.Connection, url: str, table: str): None</text>
<text text-anchor="start" x="323.5" y="-38.3" font-family="Times New Roman,serif" font-size="14.00">set_hot_url(db_connection: pymysql.Connection, url: str, hot_link: bool): None</text>
<text text-anchor="start" x="323.5" y="-23.3" font-family="Times New Roman,serif" font-size="14.00">start_insert_api(start_urls, keyword, duration_crawl)</text>
<text text-anchor="start" x="323.5" y="-8.3" font-family="Times New Roman,serif" font-size="14.00">update_crawling(db_connection: pymysql.Connection, crawl_id: int, total_page: int): None</text>
</g>
<!-- src.crawling.page_content.PageContent&#45;&gt;src.crawling.methods.breadth_first_search.BreadthFirstSearch -->
<g id="edge2" class="edge">
<title>src.crawling.page_content.PageContent&#45;&gt;src.crawling.methods.breadth_first_search.BreadthFirstSearch</title>
<path fill="none" stroke="black" d="M960.5,-280.52C960.5,-301.13 960.5,-322.35 960.5,-342.89"/>
<polygon fill="black" stroke="black" points="960.5,-342.9 964.5,-348.9 960.5,-354.9 956.5,-348.9 960.5,-342.9"/>
<text text-anchor="middle" x="998.5" y="-302.8" font-family="Times New Roman,serif" font-size="14.00" fill="green">page_content</text>
</g>
<!-- src.crawling.page_content.PageContent&#45;&gt;src.crawling.crawl.Crawl -->
<g id="edge1" class="edge">
<title>src.crawling.page_content.PageContent&#45;&gt;src.crawling.crawl.Crawl</title>
<path fill="none" stroke="black" d="M821.77,-280.77C817.14,-286.81 812.7,-292.9 808.5,-299 801.92,-308.57 795.61,-318.73 789.62,-329.17"/>
<polygon fill="black" stroke="black" points="789.6,-329.21 790.16,-336.4 783.74,-339.68 783.18,-332.5 789.6,-329.21"/>
<text text-anchor="middle" x="846.5" y="-302.8" font-family="Times New Roman,serif" font-size="14.00" fill="green">page_content</text>
</g>
<!-- src.crawling.page_content.PageContent&#45;&gt;src.crawling.methods.modified_similarity_based.ModifiedSimilarityBased -->
<g id="edge3" class="edge">
<title>src.crawling.page_content.PageContent&#45;&gt;src.crawling.methods.modified_similarity_based.ModifiedSimilarityBased</title>
<path fill="none" stroke="black" d="M1159.51,-280.65C1164.14,-286.6 1168.49,-292.72 1172.5,-299 1176.98,-306.02 1180.92,-313.48 1184.4,-321.22"/>
<polygon fill="black" stroke="black" points="1184.41,-321.25 1190.41,-325.25 1189.02,-332.33 1183.02,-328.32 1184.41,-321.25"/>
<text text-anchor="middle" x="1218.5" y="-302.8" font-family="Times New Roman,serif" font-size="14.00" fill="green">page_content</text>
</g>
<!-- src.crawling.util.Util -->
<g id="node9" class="node">
<title>src.crawling.util.Util</title>
<polygon fill="none" stroke="black" points="0,-83 0,-198 297,-198 297,-83 0,-83"/>
<text text-anchor="middle" x="148.5" y="-182.8" font-family="Times New Roman,serif" font-size="14.00">Util</text>
<polyline fill="none" stroke="black" points="0,-175 297,-175"/>
<polyline fill="none" stroke="black" points="0,-151 297,-151"/>
<text text-anchor="start" x="8" y="-135.8" font-family="Times New Roman,serif" font-size="14.00">count_keyword_in_text(text: str, keyword: str): int</text>
<text text-anchor="start" x="8" y="-120.8" font-family="Times New Roman,serif" font-size="14.00">get_page(url: str): Any</text>
<text text-anchor="start" x="8" y="-105.8" font-family="Times New Roman,serif" font-size="14.00">is_valid_url(url: str): bool</text>
<text text-anchor="start" x="8" y="-90.8" font-family="Times New Roman,serif" font-size="14.00">running_thread_count(futures: list): int</text>
</g>
<!-- src.crawling.util.Util&#45;&gt;src.crawling.methods.breadth_first_search.BreadthFirstSearch -->
<g id="edge5" class="edge">
<title>src.crawling.util.Util&#45;&gt;src.crawling.methods.breadth_first_search.BreadthFirstSearch</title>
<path fill="none" stroke="black" d="M194.84,-198.31C223.46,-228.87 262.96,-263.75 306.5,-281 366.24,-304.67 831.5,-262.68 884.5,-299 901.3,-310.51 914.41,-326.53 924.62,-344.31"/>
<polygon fill="black" stroke="black" points="924.65,-344.37 931.01,-347.78 930.3,-354.95 923.95,-351.55 924.65,-344.37"/>
<text text-anchor="middle" x="909" y="-302.8" font-family="Times New Roman,serif" font-size="14.00" fill="green">util</text>
</g>
<!-- src.crawling.util.Util&#45;&gt;src.crawling.crawl.Crawl -->
<g id="edge4" class="edge">
<title>src.crawling.util.Util&#45;&gt;src.crawling.crawl.Crawl</title>
<path fill="none" stroke="black" d="M204.57,-198.02C233.43,-225.22 270.13,-257.05 306.5,-281 395.83,-339.83 505.43,-390.93 589.99,-426.41"/>
<polygon fill="black" stroke="black" points="590.15,-426.47 597.23,-425.09 601.23,-431.09 594.15,-432.47 590.15,-426.47"/>
<text text-anchor="middle" x="369" y="-302.8" font-family="Times New Roman,serif" font-size="14.00" fill="green">util</text>
</g>
<!-- src.crawling.util.Util&#45;&gt;src.crawling.methods.modified_similarity_based.ModifiedSimilarityBased -->
<g id="edge6" class="edge">
<title>src.crawling.util.Util&#45;&gt;src.crawling.methods.modified_similarity_based.ModifiedSimilarityBased</title>
<path fill="none" stroke="black" d="M194.45,-198.1C223.07,-228.79 262.71,-263.87 306.5,-281 348.32,-297.35 1076.3,-275.41 1114.5,-299 1125.19,-305.6 1134.74,-313.83 1143.26,-323.13"/>
<polygon fill="black" stroke="black" points="1143.33,-323.21 1150.27,-325.18 1151.12,-332.34 1144.19,-330.37 1143.33,-323.21"/>
<text text-anchor="middle" x="1141" y="-302.8" font-family="Times New Roman,serif" font-size="14.00" fill="green">util</text>
</g>
</g>
</svg>
